<svg width="2701" height="2478" viewBox="0 0 2701 2478" fill="none" xmlns="http://www.w3.org/2000/svg">
<g clip-path="url(#clip0)">
<ellipse cx="1421.6" cy="1634.5" rx="1279.6" ry="1238.5" fill="#6D45E6"/>
<path d="M2148.93 2209.24C2068.99 2066.52 1624.5 2059.59 1624.5 1912.83C1624.5 1850.31 1624.5 1641.19 1624.5 1641.19H1418.5L1222 1564C1222 1564 1222 1773.13 1222 1835.65C1222 1982.41 768.007 2066.52 688.07 2209.24C643.66 2288.49 602 2478 602 2478H1418.5H2235C2235 2478 2193.34 2288.49 2148.93 2209.24Z" fill="url(#paint0_linear)"/>
<path d="M1837.5 1260.93C1824.81 1256.41 1811.63 1255.64 1798.66 1257.97V1001.66C1798.66 829.599 1628.42 704.949 1418.5 704.949C1208.51 704.949 1038.34 829.599 1038.34 1001.66V1257.97C1025.37 1255.64 1012.26 1256.41 999.5 1260.93C946.843 1279.69 921.466 1354.44 942.896 1428.01C960.66 1488.82 1004.86 1529.69 1049.41 1531.41C1087.4 1682.68 1215.63 1777.28 1310.37 1828.9C1378.6 1866.04 1458.4 1866.04 1526.56 1828.9C1621.3 1777.28 1749.46 1682.61 1787.52 1531.41C1832.07 1529.69 1876.34 1488.9 1894.03 1428.01C1915.53 1354.44 1890.16 1279.69 1837.5 1260.93Z" fill="url(#paint1_linear)"/>
<path d="M1240.79 1137.84C1211.68 1145.31 1184.89 1165.79 1170.93 1194.13C1183.2 1185.41 1194.83 1177.31 1207.1 1170.93C1219.29 1164.54 1231.91 1159.79 1244.81 1156.44C1257.78 1153.1 1271.03 1150.99 1284.71 1149.9C1298.38 1148.81 1312.34 1148.66 1326.86 1147.88C1313.75 1140.8 1299.58 1136.67 1284.99 1134.96C1270.4 1133.32 1255.38 1133.94 1240.79 1137.84Z" fill="url(#paint2_linear)"/>
<path d="M1596.21 1137.84C1581.62 1133.94 1566.6 1133.32 1552.01 1135.03C1537.42 1136.75 1523.25 1140.95 1510.14 1147.96C1524.73 1148.74 1538.62 1148.89 1552.29 1149.98C1565.97 1151.07 1579.29 1153.18 1592.19 1156.52C1605.09 1159.95 1617.71 1164.62 1629.9 1171.01C1642.1 1177.39 1653.8 1185.41 1666.07 1194.21C1652.11 1165.79 1625.32 1145.39 1596.21 1137.84Z" fill="url(#paint3_linear)"/>
<path d="M1309.8 1278.53C1295.99 1265.45 1277.31 1258.05 1258.7 1258.2C1240.09 1258.13 1221.41 1265.6 1207.59 1278.6C1193.84 1291.61 1184.68 1310.06 1185.1 1329.37C1200.26 1320.18 1212.74 1314.57 1224.72 1311.07C1236.63 1307.57 1247.56 1306.17 1258.7 1306.17C1269.83 1306.24 1280.76 1307.64 1292.67 1311.15C1304.66 1314.65 1317.06 1320.26 1332.29 1329.44C1332.71 1310.06 1323.55 1291.53 1309.8 1278.53Z" fill="url(#paint4_linear)"/>
<path d="M1629.48 1278.53C1615.66 1265.45 1596.98 1258.05 1578.37 1258.2C1559.76 1258.13 1541.08 1265.6 1527.27 1278.6C1513.52 1291.61 1504.36 1310.06 1504.78 1329.37C1519.94 1320.18 1532.41 1314.57 1544.4 1311.07C1556.31 1307.57 1567.24 1306.17 1578.37 1306.17C1589.51 1306.24 1600.44 1307.64 1612.35 1311.15C1624.33 1314.65 1636.74 1320.26 1651.97 1329.44C1652.39 1310.06 1643.16 1291.53 1629.48 1278.53Z" fill="url(#paint5_linear)"/>
<path d="M1418.5 697.786C1628.49 697.786 1798.66 829.521 1798.66 1001.59V1257.97C1783.15 1260.77 1768 1268.17 1754.25 1279.3C1754.25 1078.51 1713.29 1040.9 1654.01 944.828C1596.56 944.828 1509.08 945.451 1418.43 946.152V697.786H1418.5Z" fill="url(#paint6_linear)"/>
<g opacity="0.1">
<path opacity="0.1" d="M990.261 1353.34C964.391 1326.64 929.78 1321.03 913.003 1340.88C896.226 1360.74 903.557 1398.5 929.498 1425.2C932.882 1428.63 936.336 1431.74 939.931 1434.47C946.275 1439.3 954.804 1432.21 951.985 1424.27C945.922 1407.14 946.98 1390.01 956.285 1379.03C963.122 1371.01 973.203 1367.59 984.34 1368.52C991.742 1369.15 995.901 1359.1 990.543 1353.5C990.332 1353.5 990.261 1353.42 990.261 1353.34Z" fill="#6D45E6"/>
<path opacity="0.1" d="M1789.7 1340.96C1772.93 1321.11 1738.31 1326.64 1712.44 1353.42C1712.37 1353.5 1712.3 1353.58 1712.23 1353.65C1706.8 1359.26 1711.03 1369.3 1718.44 1368.68C1729.57 1367.75 1739.65 1371.17 1746.49 1379.19C1755.8 1390.17 1756.78 1407.3 1750.79 1424.43C1747.97 1432.37 1756.5 1439.45 1762.85 1434.63C1766.44 1431.9 1769.96 1428.79 1773.28 1425.36C1799.08 1398.5 1806.48 1360.82 1789.7 1340.96Z" fill="#6D45E6"/>
</g>
<path d="M1306.98 1562.01C1295.07 1562.01 1285.62 1573.76 1287.6 1586.76C1298.24 1655.98 1352.8 1708.69 1418.5 1708.69C1484.2 1708.69 1538.76 1655.98 1549.4 1586.76C1551.38 1573.76 1541.93 1562.01 1530.02 1562.01H1306.98Z" fill="url(#paint7_linear)"/>
<path d="M1538.76 1624.21C1501.68 1607.4 1461.08 1598.05 1418.5 1598.05C1375.92 1598.05 1335.32 1607.4 1298.24 1624.21C1319.46 1674.12 1365.28 1708.61 1418.5 1708.61C1471.72 1708.61 1517.54 1674.04 1538.76 1624.21Z" fill="url(#paint8_linear)"/>
<path d="M1418.5 690H1290.7C1151.27 690 1038.27 814.806 1038.27 968.808V1060.99V1257.97C1053.78 1260.77 1068.93 1268.17 1082.68 1279.3C1082.68 1170.23 1094.73 1109.26 1115.32 1060.99H1649.29C1788.72 1060.99 1901.72 936.186 1901.72 782.183V690H1418.5Z" fill="url(#paint9_linear)"/>
<path d="M1578.3 1188.76C1513.1 1188.76 1459.31 1244.03 1453.39 1314.34C1430.13 1305.85 1406.73 1305.85 1383.54 1314.34C1377.61 1243.96 1323.83 1188.76 1258.63 1188.76C1189.47 1188.76 1133.15 1250.89 1133.15 1327.34C1133.15 1403.72 1189.4 1465.93 1258.63 1465.93C1325.94 1465.93 1381 1407.07 1383.96 1333.49C1407.15 1323.61 1429.78 1323.61 1452.97 1333.49C1455.86 1407.07 1510.98 1465.93 1578.3 1465.93C1647.46 1465.93 1703.78 1403.8 1703.78 1327.34C1703.78 1250.89 1647.53 1188.76 1578.3 1188.76ZM1258.7 1447.71C1198.57 1447.71 1149.65 1393.68 1149.65 1327.26C1149.65 1260.85 1198.57 1206.82 1258.7 1206.82C1318.83 1206.82 1367.75 1260.85 1367.75 1327.26C1367.75 1393.68 1318.83 1447.71 1258.7 1447.71ZM1578.3 1447.71C1518.17 1447.71 1469.25 1393.68 1469.25 1327.26C1469.25 1260.85 1518.17 1206.82 1578.3 1206.82C1638.43 1206.82 1687.35 1260.85 1687.35 1327.26C1687.35 1393.68 1638.43 1447.71 1578.3 1447.71Z" fill="url(#paint10_linear)"/>
<mask id="mask0" style="mask-type:alpha" maskUnits="userSpaceOnUse" x="569" y="1857" width="1700" height="676">
<path d="M1623.01 1857C1776.86 1871.13 1895 1909.95 1895 2010.47L1894.95 2007.45C2114.75 2083.63 2269 2262.15 2269 2470.23V2533H569V2470.23C569 2262.15 723.254 2083.63 943.055 2007.45C945.385 1909.17 1062.69 1870.98 1215 1857L1215 1989.01C1215 2081.46 1306.33 2156.39 1419 2156.39C1531.67 2156.39 1623 2081.46 1623 1989.01L1623.01 1857Z" fill="white"/>
</mask>
<g mask="url(#mask0)">
<path d="M1623.01 1857C1776.86 1871.13 1895 1909.95 1895 2010.47L1894.95 2007.45C2114.75 2083.63 2269 2262.15 2269 2470.23V2533H569V2470.23C569 2262.15 723.254 2083.63 943.055 2007.45C945.385 1909.17 1062.69 1870.98 1215 1857L1215 1989.01C1215 2081.46 1306.33 2156.39 1419 2156.39C1531.67 2156.39 1623 2081.46 1623 1989.01L1623.01 1857Z" fill="#B7C1DB"/>
<path d="M2549.41 1765.84H297.002V2533H2549.41V1765.84Z" fill="#293347"/>
<path fill-rule="evenodd" clip-rule="evenodd" d="M1164 2196.42L1164 2533H1104.5L1104.49 2171.39C1123.22 2180.52 1143.14 2188.9 1164 2196.42ZM1733.51 2171.38L1733.5 2452.8C1733.5 2466.28 1720.18 2477.21 1703.75 2477.21C1687.32 2477.21 1674 2466.28 1674 2452.8L1674.01 2196.42C1694.86 2188.89 1714.78 2180.52 1733.51 2171.38Z" fill="#F4F4F4"/>
<path fill-rule="evenodd" clip-rule="evenodd" d="M1767.81 1854.58C1895.76 1874.43 1984.25 1913.99 1984.25 1991.16C1984.25 2128.64 1703.43 2240.08 1419 2240.08C1134.57 2240.08 853.749 2128.64 853.749 1991.16C853.749 1913.99 942.239 1874.43 1070.18 1854.58C992.952 1877.94 942.999 1917.21 942.999 1982.58C942.999 2124.79 1179.48 2240.08 1419 2240.08C1658.52 2240.08 1895 2124.79 1895 1982.58C1895 1918.58 1847.11 1879.59 1772.61 1856.06L1767.81 1854.58Z" fill="black" fill-opacity="0.16"/>
</g>
</g>
<defs>
<linearGradient id="paint0_linear" x1="1866.94" y1="2884.52" x2="881.206" y2="1992.05" gradientUnits="userSpaceOnUse">
<stop stop-color="#FFDFB4"/>
<stop offset="0.2048" stop-color="#FED6AD"/>
<stop offset="0.5387" stop-color="#FBBE99"/>
<stop offset="0.9581" stop-color="#F79679"/>
<stop offset="1" stop-color="#F69275"/>
</linearGradient>
<linearGradient id="paint1_linear" x1="1074.13" y1="864.199" x2="1831.1" y2="1549.55" gradientUnits="userSpaceOnUse">
<stop stop-color="#FFDFB4"/>
<stop offset="0.2048" stop-color="#FED6AD"/>
<stop offset="0.5387" stop-color="#FBBE99"/>
<stop offset="0.9581" stop-color="#F79679"/>
<stop offset="1" stop-color="#F69275"/>
</linearGradient>
<linearGradient id="paint2_linear" x1="1170.95" y1="1164.14" x2="1326.89" y2="1164.14" gradientUnits="userSpaceOnUse">
<stop stop-color="#2D404E"/>
<stop offset="1" stop-color="#100C1A"/>
</linearGradient>
<linearGradient id="paint3_linear" x1="1510.11" y1="1164.14" x2="1666.05" y2="1164.14" gradientUnits="userSpaceOnUse">
<stop stop-color="#2D404E"/>
<stop offset="1" stop-color="#100C1A"/>
</linearGradient>
<linearGradient id="paint4_linear" x1="1185.09" y1="1293.79" x2="1332.25" y2="1293.79" gradientUnits="userSpaceOnUse">
<stop stop-color="#2D404E"/>
<stop offset="1" stop-color="#100C1A"/>
</linearGradient>
<linearGradient id="paint5_linear" x1="1504.75" y1="1293.79" x2="1651.91" y2="1293.79" gradientUnits="userSpaceOnUse">
<stop stop-color="#2D404E"/>
<stop offset="1" stop-color="#100C1A"/>
</linearGradient>
<linearGradient id="paint6_linear" x1="1411.28" y1="705.793" x2="1898.89" y2="1147.27" gradientUnits="userSpaceOnUse">
<stop stop-color="#100C1A"/>
<stop offset="1" stop-color="#2D404E"/>
</linearGradient>
<linearGradient id="paint7_linear" x1="1341.63" y1="1514.67" x2="1510.6" y2="1667.65" gradientUnits="userSpaceOnUse">
<stop stop-color="#2D404E"/>
<stop offset="1" stop-color="#100C1A"/>
</linearGradient>
<linearGradient id="paint8_linear" x1="1355.58" y1="1560.88" x2="1493.88" y2="1686.09" gradientUnits="userSpaceOnUse">
<stop stop-color="#FF009D"/>
<stop offset="1" stop-color="#9C1242"/>
</linearGradient>
<linearGradient id="paint9_linear" x1="1199.54" y1="675.265" x2="1696.06" y2="1124.8" gradientUnits="userSpaceOnUse">
<stop stop-color="#2D404E"/>
<stop offset="1" stop-color="#100C1A"/>
</linearGradient>
<linearGradient id="paint10_linear" x1="1249.92" y1="1141.08" x2="1620.48" y2="1476.59" gradientUnits="userSpaceOnUse">
<stop stop-color="#FF009D"/>
<stop offset="1" stop-color="#9C1242"/>
</linearGradient>
<clipPath id="clip0">
<rect width="2701" height="2478" fill="white"/>
</clipPath>
</defs>
</svg>
